1.9Hzlow3min_grf.mot
version=1
nRows=10
nColumns 19
inDegrees=yes
endheader
time	1_ground_force_vx	1_ground_force_vy	1_ground_force_vz	1_ground_force_px	1_ground_force_py	1_ground_force_pz	1_ground_torque_x	1_ground_torque_y	1_ground_torque_z	2_ground_force_vx	2_ground_force_vy	2_ground_force_vz	2_ground_force_px	2_ground_force_py	2_ground_force_pz	2_ground_torque_x	2_ground_torque_y	2_ground_torque_z
            3.751500	           19.215439	          140.453093	           -4.673222	           -0.223297	            0.006300	           -0.422826	            0.018558	            0.135649	           -0.004513	           30.930136	          327.014172	           42.966228	           -0.238999	            0.005670	           -0.711409	            0.152977	            1.617374	            0.212506
            3.752000	           19.625758	          144.782104	           -5.251822	           -0.223876	            0.006301	           -0.423073	            0.014285	            0.105381	           -0.003823	           31.380851	          331.986506	           43.359194	           -0.238797	            0.005669	           -0.710895	            0.142879	            1.511560	            0.197418
            3.752500	           20.082946	          147.847889	           -5.514955	           -0.224417	            0.006299	           -0.422735	            0.030227	            0.222526	           -0.008301	           31.969607	          337.694800	           44.083225	           -0.238987	            0.005669	           -0.711104	            0.134577	            1.421533	            0.185569
            3.753000	           20.633284	          150.370535	           -5.230363	           -0.223745	            0.006305	           -0.424037	            0.056833	            0.414184	           -0.014407	           32.316718	          345.428588	           44.626872	           -0.239169	            0.005670	           -0.711724	            0.135765	            1.451172	            0.187481
            3.753500	           21.045714	          154.335477	           -4.985103	           -0.224221	            0.006304	           -0.423772	            0.074719	            0.547943	           -0.017699	           32.769640	          349.846827	           45.487148	           -0.239064	            0.005669	           -0.711144	            0.144554	            1.543246	            0.200653
            3.754000	           21.501859	          158.123897	           -5.611991	           -0.224447	            0.006305	           -0.424011	            0.063745	            0.468781	           -0.016638	           32.984939	          355.185258	           46.256952	           -0.239090	            0.005667	           -0.710806	            0.148650	            1.600681	            0.208462
            3.754500	           22.095550	          162.452944	           -6.191046	           -0.224899	            0.006302	           -0.423463	            0.047836	            0.351701	           -0.013403	           33.052284	          362.549688	           46.799404	           -0.238860	            0.005670	           -0.711327	            0.150590	            1.651821	            0.213224
            3.755000	           22.504352	          166.964777	           -7.364999	           -0.225062	            0.006299	           -0.422631	            0.023135	            0.171645	           -0.007571	           33.179204	          366.414655	           47.563992	           -0.239388	            0.005665	           -0.710535	            0.143738	            1.587370	            0.206055
            3.755500	           22.960140	          170.213187	           -8.177630	           -0.225095	            0.006300	           -0.422927	            0.027306	            0.202427	           -0.009725	           33.247713	          373.412143	           47.729705	           -0.239225	            0.005668	           -0.711054	            0.135756	            1.524699	            0.194888
            3.756000	           23.462538	          173.640495	           -8.668611	           -0.224740	            0.006302	           -0.423349	            0.057848	            0.428122	           -0.021373	           33.231345	          378.013835	           48.309268	           -0.239026	            0.005667	           -0.710724	            0.130186	            1.480894	            0.189255
